<svg width="303" height="48" viewBox="0 0 303 48" fill="none" xmlns="http://www.w3.org/2000/svg">
<path d="M28.4651 4.736V11.12H18.4331V38H10.9451V11.12H0.913147V4.736H28.4651Z" fill="#141414"/>
<path d="M32.7975 38V1.904L39.9495 0.751999V12.848C40.4295 12.688 41.0375 12.544 41.7735 12.416C42.5415 12.256 43.2775 12.176 43.9815 12.176C46.0295 12.176 47.7255 12.464 49.0695 13.04C50.4455 13.584 51.5335 14.368 52.3335 15.392C53.1655 16.416 53.7415 17.632 54.0615 19.04C54.4135 20.448 54.5895 22.016 54.5895 23.744V38H47.4375V24.608C47.4375 22.304 47.1335 20.672 46.5255 19.712C45.9495 18.752 44.8615 18.272 43.2615 18.272C42.6215 18.272 42.0135 18.336 41.4375 18.464C40.8935 18.56 40.3975 18.672 39.9495 18.8V38H32.7975Z" fill="#141414"/>
<path d="M68.2151 38H61.0631V12.752H68.2151V38ZM68.8871 5.456C68.8871 6.768 68.4551 7.808 67.5911 8.576C66.7591 9.312 65.7671 9.68 64.6151 9.68C63.4631 9.68 62.4551 9.312 61.5911 8.576C60.7591 7.808 60.3431 6.768 60.3431 5.456C60.3431 4.144 60.7591 3.12 61.5911 2.384C62.4551 1.616 63.4631 1.232 64.6151 1.232C65.7671 1.232 66.7591 1.616 67.5911 2.384C68.4551 3.12 68.8871 4.144 68.8871 5.456Z" fill="#141414"/>
<path d="M84.5862 33.008C85.2902 33.008 85.9622 32.992 86.6021 32.96C87.2421 32.928 87.7541 32.88 88.1381 32.816V27.392C87.8501 27.328 87.4182 27.264 86.8421 27.2C86.2661 27.136 85.7381 27.104 85.2581 27.104C84.5862 27.104 83.9462 27.152 83.3382 27.248C82.7622 27.312 82.2501 27.456 81.8021 27.68C81.3541 27.904 81.0021 28.208 80.7461 28.592C80.4902 28.976 80.3621 29.456 80.3621 30.032C80.3621 31.152 80.7301 31.936 81.4661 32.384C82.2341 32.8 83.2741 33.008 84.5862 33.008ZM84.0101 12.08C86.1221 12.08 87.8821 12.32 89.2901 12.8C90.6981 13.28 91.8181 13.968 92.6501 14.864C93.5141 15.76 94.1222 16.848 94.4742 18.128C94.8261 19.408 95.0022 20.832 95.0022 22.4V37.28C93.9781 37.504 92.5541 37.76 90.7301 38.048C88.9062 38.368 86.6982 38.528 84.1061 38.528C82.4742 38.528 80.9862 38.384 79.6422 38.096C78.3302 37.808 77.1941 37.344 76.2341 36.704C75.2741 36.032 74.5381 35.168 74.0261 34.112C73.5141 33.056 73.2581 31.76 73.2581 30.224C73.2581 28.752 73.5462 27.504 74.1221 26.48C74.7301 25.456 75.5302 24.64 76.5221 24.032C77.5141 23.424 78.6501 22.992 79.9301 22.736C81.2101 22.448 82.5381 22.304 83.9141 22.304C84.8421 22.304 85.6581 22.352 86.3621 22.448C87.0981 22.512 87.6901 22.608 88.1381 22.736V22.064C88.1381 20.848 87.7701 19.872 87.0341 19.136C86.2981 18.4 85.0181 18.032 83.1941 18.032C81.9781 18.032 80.7781 18.128 79.5941 18.32C78.4101 18.48 77.3861 18.72 76.5221 19.04L75.6101 13.28C76.0261 13.152 76.5381 13.024 77.1461 12.896C77.7861 12.736 78.4741 12.608 79.2101 12.512C79.9461 12.384 80.7141 12.288 81.5141 12.224C82.3461 12.128 83.1781 12.08 84.0101 12.08Z" fill="#141414"/>
<path d="M107.565 24.56C107.565 28.56 109.181 30.56 112.413 30.56C113.149 30.56 113.837 30.464 114.477 30.272C115.117 30.08 115.661 29.856 116.109 29.6V18.176C115.757 18.112 115.341 18.064 114.861 18.032C114.381 17.968 113.821 17.936 113.181 17.936C111.293 17.936 109.885 18.56 108.957 19.808C108.029 21.056 107.565 22.64 107.565 24.56ZM123.261 34.832C123.261 38.96 122.205 42.016 120.093 44C118.013 46.016 114.781 47.024 110.397 47.024C108.861 47.024 107.325 46.88 105.789 46.592C104.253 46.336 102.829 45.984 101.517 45.536L102.765 39.536C103.885 39.984 105.053 40.336 106.269 40.592C107.517 40.848 108.925 40.976 110.493 40.976C112.541 40.976 113.981 40.528 114.813 39.632C115.677 38.736 116.109 37.584 116.109 36.176V35.264C115.341 35.616 114.541 35.888 113.709 36.08C112.909 36.24 112.029 36.32 111.069 36.32C107.581 36.32 104.909 35.296 103.053 33.248C101.197 31.168 100.269 28.272 100.269 24.56C100.269 22.704 100.557 21.024 101.133 19.52C101.709 17.984 102.541 16.672 103.629 15.584C104.749 14.496 106.109 13.664 107.709 13.088C109.309 12.48 111.117 12.176 113.133 12.176C113.997 12.176 114.877 12.224 115.773 12.32C116.701 12.384 117.613 12.48 118.509 12.608C119.405 12.736 120.253 12.896 121.053 13.088C121.885 13.248 122.621 13.424 123.261 13.616V34.832Z" fill="#141414"/>
<path d="M153.585 25.328C153.585 27.312 153.297 29.136 152.721 30.8C152.145 32.432 151.313 33.84 150.225 35.024C149.137 36.176 147.825 37.072 146.289 37.712C144.785 38.352 143.089 38.672 141.201 38.672C139.345 38.672 137.649 38.352 136.113 37.712C134.609 37.072 133.313 36.176 132.225 35.024C131.137 33.84 130.289 32.432 129.681 30.8C129.073 29.136 128.769 27.312 128.769 25.328C128.769 23.344 129.073 21.536 129.681 19.904C130.321 18.272 131.185 16.88 132.273 15.728C133.393 14.576 134.705 13.68 136.209 13.04C137.745 12.4 139.409 12.08 141.201 12.08C143.025 12.08 144.689 12.4 146.193 13.04C147.729 13.68 149.041 14.576 150.129 15.728C151.217 16.88 152.065 18.272 152.673 19.904C153.281 21.536 153.585 23.344 153.585 25.328ZM146.289 25.328C146.289 23.12 145.841 21.392 144.945 20.144C144.081 18.864 142.833 18.224 141.201 18.224C139.569 18.224 138.305 18.864 137.409 20.144C136.513 21.392 136.065 23.12 136.065 25.328C136.065 27.536 136.513 29.296 137.409 30.608C138.305 31.888 139.569 32.528 141.201 32.528C142.833 32.528 144.081 31.888 144.945 30.608C145.841 29.296 146.289 27.536 146.289 25.328Z" fill="#141414"/>
<path d="M180.881 4.352C185.873 4.352 189.697 5.248 192.353 7.04C195.009 8.8 196.337 11.552 196.337 15.296C196.337 17.632 195.793 19.536 194.705 21.008C193.649 22.448 192.113 23.584 190.097 24.416C190.769 25.248 191.473 26.208 192.209 27.296C192.945 28.352 193.665 29.472 194.369 30.656C195.105 31.808 195.809 33.024 196.481 34.304C197.153 35.552 197.777 36.784 198.353 38H189.953C189.345 36.912 188.721 35.808 188.081 34.688C187.473 33.568 186.833 32.48 186.161 31.424C185.521 30.368 184.881 29.376 184.241 28.448C183.601 27.488 182.961 26.624 182.321 25.856H178.625V38H171.137V5.216C172.769 4.896 174.449 4.672 176.177 4.544C177.937 4.416 179.505 4.352 180.881 4.352ZM181.313 10.736C180.769 10.736 180.273 10.752 179.825 10.784C179.409 10.816 179.009 10.848 178.625 10.88V19.904H180.737C183.553 19.904 185.569 19.552 186.785 18.848C188.001 18.144 188.609 16.944 188.609 15.248C188.609 13.616 187.985 12.464 186.737 11.792C185.521 11.088 183.713 10.736 181.313 10.736Z" fill="#141414"/>
<path d="M225.07 25.328C225.07 27.312 224.782 29.136 224.206 30.8C223.63 32.432 222.798 33.84 221.71 35.024C220.622 36.176 219.31 37.072 217.774 37.712C216.27 38.352 214.574 38.672 212.686 38.672C210.83 38.672 209.134 38.352 207.598 37.712C206.094 37.072 204.798 36.176 203.71 35.024C202.622 33.84 201.774 32.432 201.166 30.8C200.558 29.136 200.254 27.312 200.254 25.328C200.254 23.344 200.558 21.536 201.166 19.904C201.806 18.272 202.67 16.88 203.758 15.728C204.878 14.576 206.19 13.68 207.694 13.04C209.23 12.4 210.894 12.08 212.686 12.08C214.51 12.08 216.174 12.4 217.678 13.04C219.214 13.68 220.526 14.576 221.614 15.728C222.702 16.88 223.55 18.272 224.158 19.904C224.766 21.536 225.07 23.344 225.07 25.328ZM217.774 25.328C217.774 23.12 217.326 21.392 216.43 20.144C215.566 18.864 214.318 18.224 212.686 18.224C211.054 18.224 209.79 18.864 208.894 20.144C207.998 21.392 207.55 23.12 207.55 25.328C207.55 27.536 207.998 29.296 208.894 30.608C209.79 31.888 211.054 32.528 212.686 32.528C214.318 32.528 215.566 31.888 216.43 30.608C217.326 29.296 217.774 27.536 217.774 25.328Z" fill="#141414"/>
<path d="M229.41 25.376C229.41 23.552 229.698 21.84 230.274 20.24C230.882 18.608 231.746 17.2 232.866 16.016C233.986 14.8 235.346 13.84 236.946 13.136C238.546 12.432 240.37 12.08 242.418 12.08C243.762 12.08 244.994 12.208 246.114 12.464C247.234 12.688 248.322 13.024 249.378 13.472L247.89 19.184C247.218 18.928 246.482 18.704 245.682 18.512C244.882 18.32 243.986 18.224 242.994 18.224C240.882 18.224 239.298 18.88 238.242 20.192C237.218 21.504 236.706 23.232 236.706 25.376C236.706 27.648 237.186 29.408 238.146 30.656C239.138 31.904 240.85 32.528 243.282 32.528C244.146 32.528 245.074 32.448 246.066 32.288C247.058 32.128 247.97 31.872 248.802 31.52L249.81 37.376C248.978 37.728 247.938 38.032 246.69 38.288C245.442 38.544 244.066 38.672 242.562 38.672C240.258 38.672 238.274 38.336 236.61 37.664C234.946 36.96 233.57 36.016 232.482 34.832C231.426 33.648 230.642 32.256 230.13 30.656C229.65 29.024 229.41 27.264 229.41 25.376Z" fill="#141414"/>
<path d="M254.61 38V1.904L261.762 0.751999V12.848C262.242 12.688 262.85 12.544 263.586 12.416C264.354 12.256 265.09 12.176 265.794 12.176C267.842 12.176 269.538 12.464 270.882 13.04C272.258 13.584 273.346 14.368 274.146 15.392C274.978 16.416 275.554 17.632 275.874 19.04C276.226 20.448 276.402 22.016 276.402 23.744V38H269.25V24.608C269.25 22.304 268.946 20.672 268.338 19.712C267.762 18.752 266.674 18.272 265.074 18.272C264.434 18.272 263.826 18.336 263.25 18.464C262.706 18.56 262.21 18.672 261.762 18.8V38H254.61Z" fill="#141414"/>
<path d="M292.524 33.008C293.228 33.008 293.9 32.992 294.54 32.96C295.18 32.928 295.692 32.88 296.076 32.816V27.392C295.788 27.328 295.356 27.264 294.78 27.2C294.204 27.136 293.676 27.104 293.196 27.104C292.524 27.104 291.884 27.152 291.276 27.248C290.7 27.312 290.188 27.456 289.74 27.68C289.292 27.904 288.94 28.208 288.684 28.592C288.428 28.976 288.3 29.456 288.3 30.032C288.3 31.152 288.668 31.936 289.404 32.384C290.172 32.8 291.212 33.008 292.524 33.008ZM291.948 12.08C294.06 12.08 295.82 12.32 297.228 12.8C298.636 13.28 299.756 13.968 300.588 14.864C301.452 15.76 302.06 16.848 302.412 18.128C302.764 19.408 302.94 20.832 302.94 22.4V37.28C301.916 37.504 300.492 37.76 298.668 38.048C296.844 38.368 294.636 38.528 292.044 38.528C290.412 38.528 288.924 38.384 287.58 38.096C286.268 37.808 285.132 37.344 284.172 36.704C283.212 36.032 282.476 35.168 281.964 34.112C281.452 33.056 281.196 31.76 281.196 30.224C281.196 28.752 281.484 27.504 282.06 26.48C282.668 25.456 283.468 24.64 284.46 24.032C285.452 23.424 286.588 22.992 287.868 22.736C289.148 22.448 290.476 22.304 291.852 22.304C292.78 22.304 293.596 22.352 294.3 22.448C295.036 22.512 295.628 22.608 296.076 22.736V22.064C296.076 20.848 295.708 19.872 294.972 19.136C294.236 18.4 292.956 18.032 291.132 18.032C289.916 18.032 288.716 18.128 287.532 18.32C286.348 18.48 285.324 18.72 284.46 19.04L283.548 13.28C283.964 13.152 284.476 13.024 285.084 12.896C285.724 12.736 286.412 12.608 287.148 12.512C287.884 12.384 288.652 12.288 289.452 12.224C290.284 12.128 291.116 12.08 291.948 12.08Z" fill="#141414"/>
</svg>
